<mxfile host="app.diagrams.net" agent="Mozilla/5.0 (Windows NT 10.0; Win64; x64; rv:130.0) Gecko/20100101 Firefox/130.0" version="24.7.14">
  <diagram name="第 1 页" id="ARjHmyBLc0Rk1BzGzybC">
    <mxGraphModel dx="3486" dy="1439" grid="1" gridSize="10" guides="1" tooltips="1" connect="1" arrows="1" fold="1" page="1" pageScale="1" pageWidth="827" pageHeight="1169" math="0" shadow="0">
      <root>
        <mxCell id="0" />
        <mxCell id="1" parent="0" />
        <mxCell id="TvchK89iB0BEn8Zr1K3H-41" value="" style="rounded=0;whiteSpace=wrap;html=1;strokeWidth=2;strokeColor=default;fillColor=none;" vertex="1" parent="1">
          <mxGeometry x="-400" y="50" width="1670" height="950" as="geometry" />
        </mxCell>
        <mxCell id="TvchK89iB0BEn8Zr1K3H-1" value="" style="rounded=0;html=1;whiteSpace=wrap;fillColor=none;strokeWidth=2;dashed=1;dashPattern=1 1;" vertex="1" parent="1">
          <mxGeometry x="50" y="350" width="600" height="440" as="geometry" />
        </mxCell>
        <mxCell id="TvchK89iB0BEn8Zr1K3H-2" value="控制面板（Master）" style="rounded=0;whiteSpace=wrap;html=1;fillColor=none;strokeWidth=1;strokeColor=none;fontStyle=1;fontSize=18;" vertex="1" parent="1">
          <mxGeometry x="200" y="350" width="260" height="60" as="geometry" />
        </mxCell>
        <mxCell id="TvchK89iB0BEn8Zr1K3H-3" value="&lt;div&gt;&lt;a style=&quot;box-sizing: border-box; cursor: pointer; color: rgb(66, 185, 131); font-weight: 600; padding: 0px 2px; text-decoration: none; font-family: Ubuntu, &amp;quot;Source Sans Pro&amp;quot;, sans-serif; font-size: 16px; font-style: normal; font-variant-ligatures: normal; font-variant-caps: normal; letter-spacing: normal; text-align: left; text-indent: 0px; text-transform: none; white-space: pre-wrap; word-spacing: 0.8px; -webkit-text-stroke-width: 0px; background-color: rgb(255, 230, 204);&quot; class=&quot;&quot; href=&quot;https://kubernetes.io/zh-cn/docs/concepts/architecture/#kube-apiserver&quot;&gt;&lt;span style=&quot;box-sizing: border-box;&quot; class=&quot;md-plain&quot;&gt;kube-apiserver&lt;/span&gt;&lt;/a&gt;&lt;/div&gt;&lt;span style=&quot;background-color: rgb(255, 230, 204);&quot;&gt;基于Restful风格，开放Kubernetes接口的服务&lt;/span&gt;" style="rounded=0;whiteSpace=wrap;html=1;fillColor=#ffe6cc;strokeColor=#000000;" vertex="1" parent="1">
          <mxGeometry x="70" y="410" width="560" height="60" as="geometry" />
        </mxCell>
        <mxCell id="TvchK89iB0BEn8Zr1K3H-4" value="&lt;div&gt;&lt;a style=&quot;box-sizing: border-box; cursor: pointer; color: rgb(66, 185, 131); font-weight: 600; padding: 0px 2px; text-decoration: none; outline: 0px; -webkit-user-drag: none; font-family: Ubuntu, &amp;quot;Source Sans Pro&amp;quot;, sans-serif; font-size: 16px; font-style: normal; font-variant-ligatures: normal; font-variant-caps: normal; letter-spacing: normal; orphans: 4; text-align: left; text-indent: 0px; text-transform: none; white-space: pre-wrap; widows: 2; word-spacing: 0.8px; -webkit-text-stroke-width: 0px; background-color: rgb(255, 255, 255);&quot; href=&quot;https://kubernetes.io/zh-cn/docs/concepts/architecture/#kube-scheduler&quot;&gt;&lt;span style=&quot;box-sizing: border-box;&quot; class=&quot;md-plain&quot;&gt;kube-scheduler&lt;/span&gt;&lt;/a&gt;&lt;/div&gt;kube调度器，负责将Pod基于一定的算法，将其调到更合适的节点（服务器）上" style="rounded=0;whiteSpace=wrap;html=1;" vertex="1" parent="1">
          <mxGeometry x="70" y="640" width="560" height="60" as="geometry" />
        </mxCell>
        <mxCell id="TvchK89iB0BEn8Zr1K3H-5" value="&lt;div&gt;&lt;span style=&quot;box-sizing: border-box; color: rgb(52, 73, 94); font-family: Ubuntu, &amp;quot;Source Sans Pro&amp;quot;, sans-serif; font-size: 16px; font-style: normal; font-variant-ligatures: normal; font-variant-caps: normal; font-weight: 400; letter-spacing: normal; orphans: 4; text-align: left; text-indent: 0px; text-transform: none; white-space: pre-wrap; widows: 2; word-spacing: 0.8px; -webkit-text-stroke-width: 0px; background-color: rgb(255, 255, 255); text-decoration-thickness: initial; text-decoration-style: initial; text-decoration-color: initial;&quot; class=&quot;md-meta-i-c md-link&quot;&gt;&lt;a style=&quot;box-sizing: border-box; cursor: pointer; color: rgb(66, 185, 131); font-weight: 600; padding: 0px 2px; text-decoration: none; outline: 0px; -webkit-user-drag: none;&quot; href=&quot;https://kubernetes.io/zh-cn/docs/concepts/architecture/#kube-controller-manager&quot;&gt;&lt;span style=&quot;box-sizing: border-box;&quot; class=&quot;md-plain&quot;&gt;kube-controller-manager&lt;/span&gt;&lt;/a&gt;&lt;/span&gt;&lt;/div&gt;管理各个类型的控制器，针对k8s中的各种资源进行管理" style="rounded=0;whiteSpace=wrap;html=1;" vertex="1" parent="1">
          <mxGeometry x="330" y="490" width="300" height="140" as="geometry" />
        </mxCell>
        <mxCell id="TvchK89iB0BEn8Zr1K3H-6" value="&lt;div&gt;&lt;a style=&quot;box-sizing: border-box; cursor: pointer; color: rgb(66, 185, 131); font-weight: 600; padding: 0px 2px; text-decoration: none; -webkit-user-drag: none; font-family: Ubuntu, &amp;quot;Source Sans Pro&amp;quot;, sans-serif; font-size: 16px; font-style: normal; font-variant-ligatures: normal; font-variant-caps: normal; letter-spacing: normal; orphans: 4; text-align: left; text-indent: 0px; text-transform: none; white-space: pre-wrap; widows: 2; word-spacing: 0.8px; -webkit-text-stroke-width: 0px; background-color: rgb(255, 255, 255);&quot; href=&quot;https://kubernetes.io/zh-cn/docs/concepts/architecture/#cloud-controller-manager&quot;&gt;&lt;span style=&quot;box-sizing: border-box;&quot; class=&quot;md-plain&quot;&gt;cloud-controller-manager&lt;/span&gt;&lt;/a&gt;&lt;/div&gt;&lt;div&gt;第三方云平台提供的控制器API对接管理功能&lt;br&gt;&lt;/div&gt;" style="rounded=0;whiteSpace=wrap;html=1;labelPosition=center;verticalLabelPosition=middle;align=center;verticalAlign=middle;horizontal=1;" vertex="1" parent="1">
          <mxGeometry x="70" y="490" width="250" height="140" as="geometry" />
        </mxCell>
        <mxCell id="TvchK89iB0BEn8Zr1K3H-7" value="&lt;div&gt;&lt;a style=&quot;box-sizing: border-box; cursor: pointer; color: rgb(66, 185, 131); font-weight: 600; padding: 0px 2px; text-decoration: none; -webkit-user-drag: none; font-family: Ubuntu, &amp;quot;Source Sans Pro&amp;quot;, sans-serif; font-size: 16px; font-style: normal; font-variant-ligatures: normal; font-variant-caps: normal; letter-spacing: normal; orphans: 4; text-align: left; text-indent: 0px; text-transform: none; white-space: pre-wrap; widows: 2; word-spacing: 0.8px; -webkit-text-stroke-width: 0px; background-color: rgb(255, 255, 255);&quot; href=&quot;https://kubernetes.io/zh-cn/docs/concepts/architecture/#etcd&quot;&gt;&lt;span style=&quot;box-sizing: border-box;&quot; class=&quot;md-plain&quot;&gt;etcd&lt;/span&gt;&lt;/a&gt;&lt;/div&gt;可以理解为k8s的数据库，键值类型存储的分布式数据库，提供基于Raft算法实现自主的集群高可用" style="rounded=0;whiteSpace=wrap;html=1;" vertex="1" parent="1">
          <mxGeometry x="70" y="710" width="560" height="60" as="geometry" />
        </mxCell>
        <mxCell id="TvchK89iB0BEn8Zr1K3H-8" value="&lt;b&gt;&lt;font style=&quot;font-size: 16px;&quot;&gt;kubectl&lt;/font&gt;&lt;/b&gt;&lt;br&gt;命令行工具" style="rounded=0;whiteSpace=wrap;html=1;fillColor=#ffe6cc;strokeColor=#000000;" vertex="1" parent="1">
          <mxGeometry x="-381.14" y="470" width="160" height="60" as="geometry" />
        </mxCell>
        <mxCell id="TvchK89iB0BEn8Zr1K3H-9" value="&lt;font style=&quot;font-size: 16px;&quot;&gt;&lt;b&gt;Dashboard&lt;/b&gt;&lt;/font&gt;&lt;br&gt;UI可视化界面" style="rounded=0;whiteSpace=wrap;html=1;" vertex="1" parent="1">
          <mxGeometry x="-381.14" y="570" width="160" height="60" as="geometry" />
        </mxCell>
        <mxCell id="TvchK89iB0BEn8Zr1K3H-10" value="&lt;b&gt;&lt;font style=&quot;font-size: 12px;&quot;&gt;API&lt;/font&gt;&lt;/b&gt;" style="ellipse;whiteSpace=wrap;html=1;aspect=fixed;" vertex="1" parent="1">
          <mxGeometry x="-121.14" y="510" width="80" height="80" as="geometry" />
        </mxCell>
        <mxCell id="TvchK89iB0BEn8Zr1K3H-11" value="" style="endArrow=classic;startArrow=classic;html=1;rounded=0;fontStyle=0;curved=0;strokeWidth=2;" edge="1" parent="1" source="TvchK89iB0BEn8Zr1K3H-10">
          <mxGeometry width="50" height="50" relative="1" as="geometry">
            <mxPoint x="-271.14" y="550" as="sourcePoint" />
            <mxPoint x="-221.14" y="500" as="targetPoint" />
          </mxGeometry>
        </mxCell>
        <mxCell id="TvchK89iB0BEn8Zr1K3H-12" value="" style="endArrow=classic;startArrow=classic;html=1;rounded=0;exitX=0.052;exitY=0.788;exitDx=0;exitDy=0;entryX=1;entryY=0.5;entryDx=0;entryDy=0;exitPerimeter=0;strokeWidth=2;" edge="1" parent="1" source="TvchK89iB0BEn8Zr1K3H-10" target="TvchK89iB0BEn8Zr1K3H-9">
          <mxGeometry width="50" height="50" relative="1" as="geometry">
            <mxPoint x="-121.14" y="675" as="sourcePoint" />
            <mxPoint x="-221.14" y="625" as="targetPoint" />
          </mxGeometry>
        </mxCell>
        <mxCell id="TvchK89iB0BEn8Zr1K3H-13" value="" style="endArrow=classic;startArrow=classic;html=1;rounded=0;entryX=1;entryY=0.5;entryDx=0;entryDy=0;exitX=0.002;exitY=0.403;exitDx=0;exitDy=0;exitPerimeter=0;strokeWidth=2;" edge="1" parent="1" target="TvchK89iB0BEn8Zr1K3H-10">
          <mxGeometry width="50" height="50" relative="1" as="geometry">
            <mxPoint x="49.99999999999987" y="551.2" as="sourcePoint" />
            <mxPoint x="-51.14" y="590" as="targetPoint" />
          </mxGeometry>
        </mxCell>
        <mxCell id="TvchK89iB0BEn8Zr1K3H-14" value="第三方云平台API" style="ellipse;shape=cloud;whiteSpace=wrap;html=1;" vertex="1" parent="1">
          <mxGeometry x="-370" y="320" width="158.86" height="100" as="geometry" />
        </mxCell>
        <mxCell id="TvchK89iB0BEn8Zr1K3H-15" value="" style="endArrow=classic;startArrow=classic;html=1;rounded=0;fontStyle=0;curved=0;strokeWidth=2;exitX=0;exitY=0;exitDx=0;exitDy=0;" edge="1" parent="1">
          <mxGeometry width="50" height="50" relative="1" as="geometry">
            <mxPoint x="70" y="495" as="sourcePoint" />
            <mxPoint x="-210" y="380" as="targetPoint" />
          </mxGeometry>
        </mxCell>
        <mxCell id="TvchK89iB0BEn8Zr1K3H-17" value="" style="rounded=0;html=1;whiteSpace=wrap;fillColor=none;strokeWidth=2;dashed=1;dashPattern=1 1;" vertex="1" parent="1">
          <mxGeometry x="760" y="130" width="490" height="340" as="geometry" />
        </mxCell>
        <mxCell id="TvchK89iB0BEn8Zr1K3H-18" value="&lt;div&gt;&lt;a style=&quot;box-sizing: border-box; cursor: pointer; color: rgb(66, 185, 131); font-weight: 600; padding: 0px 2px; text-decoration: none; -webkit-user-drag: none; font-family: Ubuntu, &amp;quot;Source Sans Pro&amp;quot;, sans-serif; font-size: 16px; font-style: normal; font-variant-ligatures: normal; font-variant-caps: normal; letter-spacing: normal; orphans: 4; text-align: left; text-indent: 0px; text-transform: none; white-space: pre-wrap; widows: 2; word-spacing: 0.8px; -webkit-text-stroke-width: 0px; background-color: rgb(255, 255, 255);&quot; href=&quot;https://kubernetes.io/zh-cn/docs/concepts/architecture/#container-runtime&quot;&gt;&lt;span style=&quot;box-sizing: border-box;&quot; class=&quot;md-plain&quot;&gt;Container runtime&lt;/span&gt;&lt;/a&gt;&lt;/div&gt;&lt;div&gt;容器运行时环境：如docker、containerd、CRI-O&lt;/div&gt;" style="rounded=0;whiteSpace=wrap;html=1;" vertex="1" parent="1">
          <mxGeometry x="770" y="390" width="470" height="60" as="geometry" />
        </mxCell>
        <mxCell id="TvchK89iB0BEn8Zr1K3H-19" value="&lt;div&gt;&lt;a style=&quot;box-sizing: border-box; cursor: pointer; color: rgb(66, 185, 131); font-weight: 600; padding: 0px 2px; text-decoration: none; outline: 0px; -webkit-user-drag: none; font-family: Ubuntu, &amp;quot;Source Sans Pro&amp;quot;, sans-serif; font-size: 16px; font-style: normal; font-variant-ligatures: normal; font-variant-caps: normal; letter-spacing: normal; orphans: 4; text-align: left; text-indent: 0px; text-transform: none; white-space: pre-wrap; widows: 2; word-spacing: 0.8px; -webkit-text-stroke-width: 0px; background-color: rgb(255, 255, 255);&quot; href=&quot;https://kubernetes.io/zh-cn/docs/concepts/architecture/#kube-proxy&quot;&gt;&lt;span style=&quot;box-sizing: border-box;&quot; class=&quot;md-plain&quot;&gt;kube-proxy&lt;/span&gt;&lt;/a&gt;&lt;/div&gt;&lt;div&gt;网络代理，负责Service的服务发现以及&lt;/div&gt;&lt;div&gt;负载均衡（基于tcp/ip的四层负载）&lt;/div&gt;" style="rounded=0;whiteSpace=wrap;html=1;" vertex="1" parent="1">
          <mxGeometry x="1010" y="210" width="230" height="60" as="geometry" />
        </mxCell>
        <mxCell id="TvchK89iB0BEn8Zr1K3H-20" value="&lt;div&gt;&lt;a href=&quot;https://kubernetes.io/zh-cn/docs/concepts/architecture/#kubelet&quot; class=&quot;&quot; style=&quot;box-sizing: border-box; cursor: pointer; color: rgb(66, 185, 131); font-weight: 600; padding: 0px 2px; text-decoration: none; outline: 0px; -webkit-user-drag: none; font-family: Ubuntu, &amp;quot;Source Sans Pro&amp;quot;, sans-serif; font-size: 16px; font-style: normal; font-variant-ligatures: normal; font-variant-caps: normal; letter-spacing: normal; orphans: 4; text-align: left; text-indent: 0px; text-transform: none; white-space: pre-wrap; widows: 2; word-spacing: 0.8px; -webkit-text-stroke-width: 0px; background-color: rgb(255, 255, 255);&quot;&gt;&lt;span class=&quot;md-plain&quot; style=&quot;box-sizing: border-box;&quot;&gt;kubelet&lt;/span&gt;&lt;/a&gt;&lt;/div&gt;负载Pod的生命周期、存储和网络" style="rounded=0;whiteSpace=wrap;html=1;" vertex="1" parent="1">
          <mxGeometry x="770" y="210" width="220" height="60" as="geometry" />
        </mxCell>
        <mxCell id="TvchK89iB0BEn8Zr1K3H-21" value="&lt;div&gt;&lt;a style=&quot;box-sizing: border-box; cursor: pointer; color: rgb(66, 185, 131); font-weight: 600; padding: 0px 2px; text-decoration: none; outline: 0px; font-family: Ubuntu, &amp;quot;Source Sans Pro&amp;quot;, sans-serif; font-size: 16px; font-style: normal; font-variant-ligatures: normal; font-variant-caps: normal; letter-spacing: normal; text-align: left; text-indent: 0px; text-transform: none; white-space: pre-wrap; word-spacing: 0.8px; -webkit-text-stroke-width: 0px; background-color: rgb(255, 230, 204);&quot; href=&quot;https://kubernetes.io/zh-cn/docs/concepts/workloads/pods/&quot;&gt;&lt;span style=&quot;box-sizing: border-box;&quot; class=&quot;md-plain&quot;&gt;Pods&lt;/span&gt;&lt;/a&gt;&lt;/div&gt;&lt;span style=&quot;background-color: rgb(255, 230, 204);&quot;&gt;容器1 容器2 容器3&lt;/span&gt;" style="rounded=0;whiteSpace=wrap;html=1;fillColor=#ffe6cc;strokeColor=#000000;" vertex="1" parent="1">
          <mxGeometry x="770" y="280" width="130" height="90" as="geometry" />
        </mxCell>
        <mxCell id="TvchK89iB0BEn8Zr1K3H-23" value="&lt;div&gt;&lt;a href=&quot;https://kubernetes.io/zh-cn/docs/concepts/workloads/pods/&quot; style=&quot;box-sizing: border-box; cursor: pointer; color: rgb(66, 185, 131); font-weight: 600; padding: 0px 2px; text-decoration: none; outline: 0px; font-family: Ubuntu, &amp;quot;Source Sans Pro&amp;quot;, sans-serif; font-size: 16px; font-style: normal; font-variant-ligatures: normal; font-variant-caps: normal; letter-spacing: normal; text-align: left; text-indent: 0px; text-transform: none; white-space: pre-wrap; word-spacing: 0.8px; -webkit-text-stroke-width: 0px; background-color: rgb(255, 230, 204);&quot;&gt;&lt;span class=&quot;md-plain&quot; style=&quot;box-sizing: border-box;&quot;&gt;Pods&lt;/span&gt;&lt;/a&gt;&lt;/div&gt;&lt;span style=&quot;background-color: rgb(255, 230, 204);&quot;&gt;容器4&lt;/span&gt;" style="rounded=0;whiteSpace=wrap;html=1;fillColor=#ffe6cc;strokeColor=#000000;" vertex="1" parent="1">
          <mxGeometry x="940" y="280" width="130" height="90" as="geometry" />
        </mxCell>
        <mxCell id="TvchK89iB0BEn8Zr1K3H-24" value="&lt;div&gt;&lt;a href=&quot;https://kubernetes.io/zh-cn/docs/concepts/workloads/pods/&quot; style=&quot;box-sizing: border-box; cursor: pointer; color: rgb(66, 185, 131); font-weight: 600; padding: 0px 2px; text-decoration: none; outline: 0px; font-family: Ubuntu, &amp;quot;Source Sans Pro&amp;quot;, sans-serif; font-size: 16px; font-style: normal; font-variant-ligatures: normal; font-variant-caps: normal; letter-spacing: normal; text-align: left; text-indent: 0px; text-transform: none; white-space: pre-wrap; word-spacing: 0.8px; -webkit-text-stroke-width: 0px; background-color: rgb(255, 230, 204);&quot;&gt;&lt;span class=&quot;md-plain&quot; style=&quot;box-sizing: border-box;&quot;&gt;Pods&lt;/span&gt;&lt;/a&gt;&lt;/div&gt;&lt;span style=&quot;background-color: rgb(255, 230, 204);&quot;&gt;容器5 容器6&lt;/span&gt;" style="rounded=0;whiteSpace=wrap;html=1;fillColor=#ffe6cc;strokeColor=#000000;" vertex="1" parent="1">
          <mxGeometry x="1110" y="280" width="130" height="90" as="geometry" />
        </mxCell>
        <mxCell id="TvchK89iB0BEn8Zr1K3H-25" value="节点（Node）" style="rounded=0;whiteSpace=wrap;html=1;fillColor=none;strokeWidth=1;strokeColor=none;fontStyle=1;fontSize=18;" vertex="1" parent="1">
          <mxGeometry x="885" y="130" width="260" height="60" as="geometry" />
        </mxCell>
        <mxCell id="TvchK89iB0BEn8Zr1K3H-26" value="" style="rounded=0;html=1;whiteSpace=wrap;fillColor=none;strokeWidth=2;dashed=1;dashPattern=1 1;" vertex="1" parent="1">
          <mxGeometry x="760" y="640" width="490" height="340" as="geometry" />
        </mxCell>
        <mxCell id="TvchK89iB0BEn8Zr1K3H-27" value="&lt;div&gt;&lt;a href=&quot;https://kubernetes.io/zh-cn/docs/concepts/architecture/#container-runtime&quot; style=&quot;box-sizing: border-box; cursor: pointer; color: rgb(66, 185, 131); font-weight: 600; padding: 0px 2px; text-decoration: none; -webkit-user-drag: none; font-family: Ubuntu, &amp;quot;Source Sans Pro&amp;quot;, sans-serif; font-size: 16px; font-style: normal; font-variant-ligatures: normal; font-variant-caps: normal; letter-spacing: normal; orphans: 4; text-align: left; text-indent: 0px; text-transform: none; white-space: pre-wrap; widows: 2; word-spacing: 0.8px; -webkit-text-stroke-width: 0px; background-color: rgb(255, 255, 255);&quot;&gt;&lt;span class=&quot;md-plain&quot; style=&quot;box-sizing: border-box;&quot;&gt;Container runtime&lt;/span&gt;&lt;/a&gt;&lt;/div&gt;&lt;div&gt;容器运行时环境：如docker、containerd、CRI-O&lt;/div&gt;" style="rounded=0;whiteSpace=wrap;html=1;" vertex="1" parent="1">
          <mxGeometry x="770" y="900" width="470" height="60" as="geometry" />
        </mxCell>
        <mxCell id="TvchK89iB0BEn8Zr1K3H-28" value="&lt;div&gt;&lt;a href=&quot;https://kubernetes.io/zh-cn/docs/concepts/architecture/#kube-proxy&quot; style=&quot;box-sizing: border-box; cursor: pointer; color: rgb(66, 185, 131); font-weight: 600; padding: 0px 2px; text-decoration: none; outline: 0px; -webkit-user-drag: none; font-family: Ubuntu, &amp;quot;Source Sans Pro&amp;quot;, sans-serif; font-size: 16px; font-style: normal; font-variant-ligatures: normal; font-variant-caps: normal; letter-spacing: normal; orphans: 4; text-align: left; text-indent: 0px; text-transform: none; white-space: pre-wrap; widows: 2; word-spacing: 0.8px; -webkit-text-stroke-width: 0px; background-color: rgb(255, 255, 255);&quot;&gt;&lt;span class=&quot;md-plain&quot; style=&quot;box-sizing: border-box;&quot;&gt;kube-proxy&lt;/span&gt;&lt;/a&gt;&lt;/div&gt;&lt;div&gt;网络代理，负责Service的服务发现以及&lt;/div&gt;&lt;div&gt;负载均衡（基于tcp/ip的四层负载）&lt;/div&gt;" style="rounded=0;whiteSpace=wrap;html=1;" vertex="1" parent="1">
          <mxGeometry x="1010" y="720" width="230" height="60" as="geometry" />
        </mxCell>
        <mxCell id="TvchK89iB0BEn8Zr1K3H-29" value="&lt;div&gt;&lt;a style=&quot;box-sizing: border-box; cursor: pointer; color: rgb(66, 185, 131); font-weight: 600; padding: 0px 2px; text-decoration: none; outline: 0px; -webkit-user-drag: none; font-family: Ubuntu, &amp;quot;Source Sans Pro&amp;quot;, sans-serif; font-size: 16px; font-style: normal; font-variant-ligatures: normal; font-variant-caps: normal; letter-spacing: normal; orphans: 4; text-align: left; text-indent: 0px; text-transform: none; white-space: pre-wrap; widows: 2; word-spacing: 0.8px; -webkit-text-stroke-width: 0px; background-color: rgb(255, 255, 255);&quot; class=&quot;&quot; href=&quot;https://kubernetes.io/zh-cn/docs/concepts/architecture/#kubelet&quot;&gt;&lt;span style=&quot;box-sizing: border-box;&quot; class=&quot;md-plain&quot;&gt;kubelet&lt;/span&gt;&lt;/a&gt;&lt;/div&gt;负载Pod的生命周期、存储和网络" style="rounded=0;whiteSpace=wrap;html=1;" vertex="1" parent="1">
          <mxGeometry x="770" y="720" width="220" height="60" as="geometry" />
        </mxCell>
        <mxCell id="TvchK89iB0BEn8Zr1K3H-30" value="&lt;div&gt;&lt;a href=&quot;https://kubernetes.io/zh-cn/docs/concepts/workloads/pods/&quot; style=&quot;box-sizing: border-box; cursor: pointer; color: rgb(66, 185, 131); font-weight: 600; padding: 0px 2px; text-decoration: none; outline: 0px; font-family: Ubuntu, &amp;quot;Source Sans Pro&amp;quot;, sans-serif; font-size: 16px; font-style: normal; font-variant-ligatures: normal; font-variant-caps: normal; letter-spacing: normal; text-align: left; text-indent: 0px; text-transform: none; white-space: pre-wrap; word-spacing: 0.8px; -webkit-text-stroke-width: 0px; background-color: rgb(255, 230, 204);&quot;&gt;&lt;span class=&quot;md-plain&quot; style=&quot;box-sizing: border-box;&quot;&gt;Pods&lt;/span&gt;&lt;/a&gt;&lt;/div&gt;&lt;span style=&quot;background-color: rgb(255, 230, 204);&quot;&gt;容器1 容器2 容器3&lt;/span&gt;" style="rounded=0;whiteSpace=wrap;html=1;fillColor=#ffe6cc;strokeColor=#000000;" vertex="1" parent="1">
          <mxGeometry x="770" y="790" width="130" height="90" as="geometry" />
        </mxCell>
        <mxCell id="TvchK89iB0BEn8Zr1K3H-31" value="&lt;div&gt;&lt;a style=&quot;box-sizing: border-box; cursor: pointer; color: rgb(66, 185, 131); font-weight: 600; padding: 0px 2px; text-decoration: none; outline: 0px; font-family: Ubuntu, &amp;quot;Source Sans Pro&amp;quot;, sans-serif; font-size: 16px; font-style: normal; font-variant-ligatures: normal; font-variant-caps: normal; letter-spacing: normal; text-align: left; text-indent: 0px; text-transform: none; white-space: pre-wrap; word-spacing: 0.8px; -webkit-text-stroke-width: 0px; background-color: rgb(255, 230, 204);&quot; href=&quot;https://kubernetes.io/zh-cn/docs/concepts/workloads/pods/&quot;&gt;&lt;span style=&quot;box-sizing: border-box;&quot; class=&quot;md-plain&quot;&gt;Pods&lt;/span&gt;&lt;/a&gt;&lt;/div&gt;&lt;span style=&quot;background-color: rgb(255, 230, 204);&quot;&gt;容器4&lt;/span&gt;" style="rounded=0;whiteSpace=wrap;html=1;fillColor=#ffe6cc;strokeColor=#000000;" vertex="1" parent="1">
          <mxGeometry x="940" y="790" width="130" height="90" as="geometry" />
        </mxCell>
        <mxCell id="TvchK89iB0BEn8Zr1K3H-32" value="&lt;div&gt;&lt;a style=&quot;box-sizing: border-box; cursor: pointer; color: rgb(66, 185, 131); font-weight: 600; padding: 0px 2px; text-decoration: none; outline: 0px; font-family: Ubuntu, &amp;quot;Source Sans Pro&amp;quot;, sans-serif; font-size: 16px; font-style: normal; font-variant-ligatures: normal; font-variant-caps: normal; letter-spacing: normal; text-align: left; text-indent: 0px; text-transform: none; white-space: pre-wrap; word-spacing: 0.8px; -webkit-text-stroke-width: 0px; background-color: rgb(255, 230, 204);&quot; href=&quot;https://kubernetes.io/zh-cn/docs/concepts/workloads/pods/&quot;&gt;&lt;span style=&quot;box-sizing: border-box;&quot; class=&quot;md-plain&quot;&gt;Pods&lt;/span&gt;&lt;/a&gt;&lt;/div&gt;&lt;span style=&quot;background-color: rgb(255, 230, 204);&quot;&gt;容器5 容器6&lt;/span&gt;" style="rounded=0;whiteSpace=wrap;html=1;fillColor=#ffe6cc;strokeColor=#000000;" vertex="1" parent="1">
          <mxGeometry x="1110" y="790" width="130" height="90" as="geometry" />
        </mxCell>
        <mxCell id="TvchK89iB0BEn8Zr1K3H-33" value="节点（Node）" style="rounded=0;whiteSpace=wrap;html=1;fillColor=none;strokeWidth=1;strokeColor=none;fontStyle=1;fontSize=18;" vertex="1" parent="1">
          <mxGeometry x="885" y="640" width="260" height="60" as="geometry" />
        </mxCell>
        <mxCell id="TvchK89iB0BEn8Zr1K3H-34" value="" style="edgeStyle=elbowEdgeStyle;elbow=horizontal;endArrow=classic;html=1;curved=0;rounded=0;endSize=8;startSize=8;entryX=0;entryY=0.5;entryDx=0;entryDy=0;" edge="1" parent="1" target="TvchK89iB0BEn8Zr1K3H-17">
          <mxGeometry width="50" height="50" relative="1" as="geometry">
            <mxPoint x="650" y="560" as="sourcePoint" />
            <mxPoint x="700" y="510" as="targetPoint" />
            <Array as="points">
              <mxPoint x="710" y="420" />
            </Array>
          </mxGeometry>
        </mxCell>
        <mxCell id="TvchK89iB0BEn8Zr1K3H-36" value="" style="edgeStyle=elbowEdgeStyle;elbow=horizontal;endArrow=classic;html=1;curved=0;rounded=0;endSize=8;startSize=8;entryX=0;entryY=0.5;entryDx=0;entryDy=0;" edge="1" parent="1" target="TvchK89iB0BEn8Zr1K3H-26">
          <mxGeometry width="50" height="50" relative="1" as="geometry">
            <mxPoint x="650" y="560" as="sourcePoint" />
            <mxPoint x="740" y="660" as="targetPoint" />
            <Array as="points">
              <mxPoint x="710" y="680" />
            </Array>
          </mxGeometry>
        </mxCell>
        <mxCell id="TvchK89iB0BEn8Zr1K3H-38" value="" style="rounded=0;html=1;whiteSpace=wrap;fillColor=none;strokeWidth=2;dashed=1;dashPattern=1 1;" vertex="1" parent="1">
          <mxGeometry x="790" y="510" width="335" height="100" as="geometry" />
        </mxCell>
        <mxCell id="TvchK89iB0BEn8Zr1K3H-39" value="&lt;div&gt;节点（Node）&lt;/div&gt;..." style="rounded=0;whiteSpace=wrap;html=1;fillColor=none;strokeWidth=1;strokeColor=none;fontStyle=1;fontSize=18;" vertex="1" parent="1">
          <mxGeometry x="830" y="530" width="260" height="60" as="geometry" />
        </mxCell>
        <mxCell id="TvchK89iB0BEn8Zr1K3H-40" value="" style="edgeStyle=elbowEdgeStyle;elbow=horizontal;endArrow=classic;html=1;curved=0;rounded=0;endSize=8;startSize=8;" edge="1" parent="1">
          <mxGeometry width="50" height="50" relative="1" as="geometry">
            <mxPoint x="650" y="559.5" as="sourcePoint" />
            <mxPoint x="780" y="559.5" as="targetPoint" />
            <Array as="points">
              <mxPoint x="710" y="679.5" />
            </Array>
          </mxGeometry>
        </mxCell>
        <mxCell id="TvchK89iB0BEn8Zr1K3H-43" value="&lt;font color=&quot;#ffb366&quot; style=&quot;font-size: 30px;&quot;&gt;Kubernetes 集群 架构&lt;/font&gt;" style="rounded=0;whiteSpace=wrap;html=1;fillColor=none;strokeWidth=1;strokeColor=none;fontStyle=1;fontSize=18;" vertex="1" parent="1">
          <mxGeometry x="200" y="50" width="380" height="110" as="geometry" />
        </mxCell>
      </root>
    </mxGraphModel>
  </diagram>
</mxfile>
